# xmcd CD database file
#
# Track frame offsets:
#	150
#	20485
#	34870
#	53855
#
# Disc length: 988 seconds
#
# Revision: 0
# Processed by: cddbd v1.5.1PL0 Copyright (c) Steve Scherf et al.
# Submitted via: CDex 1.51
#
DISCID=2c03da04
DTITLE=世理奈 - 消える想い
DYEAR=2004
DGENRE=J-Pop
TTITLE0=消える想い
TTITLE1=ＭＥＢＡＥ
TTITLE2=場所
TTITLE3=消える想い（Ｉｎｓｔｒｕｍｅｎｔａｌ）
EXTD=YEAR: 2004.10.14
EXTT0=
EXTT1=
EXTT2=
EXTT3=
PLAYORDER=
